<?xml version="1.0" encoding="utf-8"?>
<!-- Generator: Adobe Illustrator 21.1.0, SVG Export Plug-In . SVG Version: 6.00 Build 0)  -->
<svg version="1.1" id="Layer_1" xmlns="http://www.w3.org/2000/svg" xmlns:xlink="http://www.w3.org/1999/xlink" x="0px" y="0px"
	 viewBox="0 0 595.3 212.8" style="enable-background:new 0 0 595.3 212.8;" xml:space="preserve">
<style type="text/css">
	.st0{fill-rule:evenodd;clip-rule:evenodd;}
	.st1{fill-rule:evenodd;clip-rule:evenodd;fill:#009E7E;}
	.st2{fill-rule:evenodd;clip-rule:evenodd;fill:#DC5128;}
	.st3{fill-rule:evenodd;clip-rule:evenodd;fill:#FDE82E;}
	.st4{fill-rule:evenodd;clip-rule:evenodd;fill:#F7932F;}
</style>
<polygon points="55.8,212.1 60.6,178.4 61.2,178.4 74.9,206.1 88.5,178.4 89,178.4 93.9,212.1 90.6,212.1 87.3,188 75.3,212.1 
	74.5,212.1 62.4,187.8 59.1,212.1 "/>
<path d="M121,203.8l2.7,1.4c-0.9,1.7-1.9,3.2-3.1,4.2c-1.2,1.1-2.5,1.9-3.9,2.4c-1.5,0.6-3.1,0.8-4.9,0.8c-4.1,0-7.3-1.3-9.6-4
	c-2.3-2.7-3.4-5.7-3.4-9.1c0-3.2,1-6,2.9-8.5c2.5-3.2,5.8-4.7,9.9-4.7c4.3,0,7.7,1.6,10.2,4.8c1.8,2.3,2.7,5.1,2.8,8.5h-22.5
	c0.1,2.9,1,5.3,2.8,7.1c1.8,1.9,4,2.8,6.6,2.8c1.3,0,2.5-0.2,3.7-0.7c1.2-0.4,2.2-1,3.1-1.8C119.1,206.7,120,205.5,121,203.8
	 M121,197.1c-0.4-1.7-1.1-3.1-1.9-4.1c-0.8-1-1.9-1.9-3.3-2.5c-1.3-0.6-2.8-0.9-4.3-0.9c-2.5,0-4.6,0.8-6.3,2.4
	c-1.3,1.1-2.3,2.9-2.9,5.2H121z"/>
<path d="M131.7,176.9c0.7,0,1.4,0.3,1.9,0.8c0.5,0.5,0.8,1.1,0.8,1.9c0,0.7-0.3,1.3-0.8,1.9c-0.5,0.5-1.1,0.8-1.9,0.8
	c-0.7,0-1.3-0.3-1.9-0.8c-0.5-0.5-0.8-1.1-0.8-1.9c0-0.7,0.3-1.4,0.8-1.9C130.3,177.1,130.9,176.9,131.7,176.9 M130.1,187.2h3.2v25
	h-3.2V187.2z"/>
<rect x="139.5" y="177.5" width="3.2" height="34.6"/>
<path d="M170.4,203.8l2.7,1.4c-0.9,1.7-1.9,3.2-3.1,4.2c-1.2,1.1-2.5,1.9-3.9,2.4c-1.5,0.6-3.1,0.8-4.9,0.8c-4.1,0-7.3-1.3-9.6-4
	c-2.3-2.7-3.4-5.7-3.4-9.1c0-3.2,1-6,2.9-8.5c2.5-3.2,5.8-4.7,9.9-4.7c4.3,0,7.7,1.6,10.2,4.8c1.8,2.3,2.7,5.1,2.8,8.5h-22.5
	c0.1,2.9,1,5.3,2.8,7.1c1.8,1.9,4,2.8,6.6,2.8c1.3,0,2.5-0.2,3.7-0.7c1.2-0.4,2.2-1,3.1-1.8C168.5,206.7,169.4,205.5,170.4,203.8
	 M170.4,197.1c-0.4-1.7-1.1-3.1-1.9-4.1c-0.8-1-1.9-1.9-3.3-2.5c-1.3-0.6-2.8-0.9-4.3-0.9c-2.4,0-4.6,0.8-6.3,2.4
	c-1.3,1.1-2.3,2.9-2.9,5.2H170.4z"/>
<path d="M192.9,187.2h3.2v4.3c1.1-1.6,2.3-2.8,3.4-3.5c1.6-1,3.3-1.5,5.1-1.5c1.2,0,2.4,0.2,3.4,0.7c1.1,0.5,2,1.1,2.7,1.9
	c0.7,0.8,1.3,1.9,1.8,3.4c1.1-2,2.4-3.4,4-4.5c1.6-1,3.3-1.5,5.2-1.5c1.7,0,3.2,0.4,4.6,1.3c1.3,0.9,2.3,2.1,2.9,3.6
	c0.6,1.6,1,3.9,1,7v13.6h-3.3v-13.6c0-2.7-0.2-4.5-0.6-5.5s-1-1.8-2-2.4s-2-0.9-3.3-0.9c-1.6,0-3,0.5-4.3,1.4
	c-1.3,0.9-2.2,2.1-2.8,3.7c-0.6,1.5-0.9,4.1-0.9,7.7v9.8h-3.2v-12.8c0-3-0.2-5.1-0.6-6.1c-0.4-1.1-1-1.9-2-2.6c-0.9-0.6-2-1-3.3-1
	c-1.5,0-2.9,0.4-4.2,1.3s-2.2,2.1-2.9,3.6c-0.6,1.5-0.9,3.8-0.9,7v10.6h-3.2V187.2z"/>
<path d="M258,203.8l2.7,1.4c-0.9,1.7-1.9,3.2-3.1,4.2c-1.2,1.1-2.5,1.9-3.9,2.4c-1.5,0.6-3.1,0.8-4.9,0.8c-4.1,0-7.3-1.3-9.6-4
	c-2.3-2.7-3.4-5.7-3.4-9.1c0-3.2,1-6,2.9-8.5c2.5-3.2,5.8-4.7,9.9-4.7c4.3,0,7.7,1.6,10.2,4.8c1.8,2.3,2.7,5.1,2.8,8.5h-22.5
	c0.1,2.9,1,5.3,2.8,7.1c1.8,1.9,4,2.8,6.6,2.8c1.3,0,2.5-0.2,3.7-0.7c1.2-0.4,2.2-1,3.1-1.8C256.1,206.7,257,205.5,258,203.8
	 M258,197.1c-0.4-1.7-1.1-3.1-1.9-4.1c-0.8-1-1.9-1.9-3.2-2.5c-1.3-0.6-2.8-0.9-4.3-0.9c-2.4,0-4.6,0.8-6.3,2.4
	c-1.3,1.1-2.3,2.9-2.9,5.2H258z"/>
<path d="M288.5,203.8l2.7,1.4c-0.9,1.7-1.9,3.2-3.1,4.2c-1.2,1.1-2.5,1.9-3.9,2.4c-1.5,0.6-3.1,0.8-4.9,0.8c-4.1,0-7.3-1.3-9.6-4
	c-2.3-2.7-3.4-5.7-3.4-9.1c0-3.2,1-6,2.9-8.5c2.5-3.2,5.8-4.7,9.9-4.7c4.3,0,7.7,1.6,10.2,4.8c1.8,2.3,2.7,5.1,2.8,8.5h-22.5
	c0.1,2.9,1,5.3,2.8,7.1c1.8,1.9,4,2.8,6.6,2.8c1.3,0,2.5-0.2,3.7-0.7c1.2-0.4,2.2-1,3.1-1.8C286.7,206.7,287.6,205.5,288.5,203.8
	 M288.5,197.1c-0.4-1.7-1.1-3.1-1.9-4.1c-0.8-1-1.9-1.9-3.3-2.5c-1.3-0.6-2.8-0.9-4.3-0.9c-2.4,0-4.6,0.8-6.3,2.4
	c-1.3,1.1-2.3,2.9-2.9,5.2H288.5z"/>
<rect x="297.6" y="177.5" width="3.2" height="34.6"/>
<path d="M332.4,177.5v34.6h-3.2v-4.3c-1.3,1.6-2.9,2.9-4.5,3.7c-1.7,0.8-3.5,1.2-5.5,1.2c-3.5,0-6.6-1.3-9.1-3.8
	c-2.5-2.6-3.8-5.7-3.8-9.4c0-3.6,1.3-6.7,3.8-9.2c2.5-2.6,5.6-3.8,9.1-3.8c2.1,0,3.9,0.4,5.6,1.3c1.7,0.9,3.1,2.2,4.4,3.9v-14.2
	H332.4z M319.6,189.6c-1.8,0-3.4,0.4-5,1.3c-1.5,0.9-2.7,2.1-3.6,3.7c-0.9,1.6-1.3,3.3-1.3,5c0,1.8,0.5,3.4,1.4,5
	c0.9,1.6,2.1,2.9,3.6,3.7c1.5,0.9,3.2,1.3,4.9,1.3c1.8,0,3.4-0.4,5-1.3c1.6-0.9,2.8-2.1,3.6-3.6c0.8-1.5,1.3-3.2,1.3-5.1
	c0-2.9-1-5.3-2.9-7.2C324.7,190.6,322.3,189.6,319.6,189.6"/>
<path d="M340.8,176.9c0.7,0,1.4,0.3,1.9,0.8c0.5,0.5,0.8,1.1,0.8,1.9c0,0.7-0.3,1.3-0.8,1.9c-0.5,0.5-1.1,0.8-1.9,0.8
	c-0.7,0-1.3-0.3-1.9-0.8c-0.5-0.5-0.8-1.1-0.8-1.9c0-0.7,0.3-1.4,0.8-1.9C339.5,177.1,340.1,176.9,340.8,176.9 M339.2,187.2h3.2v25
	h-3.2V187.2z"/>
<path d="M349.3,212.1v-34.6h3.2v13.9c1.3-1.7,2.9-2.9,4.5-3.7c1.7-0.8,3.5-1.2,5.5-1.2c3.5,0,6.5,1.3,9,3.8c2.5,2.6,3.7,5.7,3.7,9.3
	c0,3.6-1.3,6.7-3.8,9.2c-2.5,2.6-5.6,3.8-9.1,3.8c-2,0-3.9-0.4-5.5-1.3c-1.7-0.9-3.1-2.2-4.4-3.9v4.6H349.3z M362.1,209.7
	c1.8,0,3.4-0.4,4.9-1.3c1.5-0.9,2.7-2.1,3.6-3.7c0.9-1.6,1.3-3.3,1.3-5c0-1.8-0.5-3.5-1.4-5.1c-0.9-1.6-2.1-2.9-3.6-3.8
	c-1.5-0.9-3.1-1.3-4.9-1.3c-1.8,0-3.4,0.4-5,1.3c-1.6,0.9-2.8,2.1-3.6,3.6c-0.8,1.5-1.3,3.2-1.3,5.1c0,2.9,0.9,5.3,2.8,7.3
	C357,208.7,359.4,209.7,362.1,209.7"/>
<path d="M415.2,203.8l2.7,1.4c-0.9,1.7-1.9,3.2-3.1,4.2c-1.2,1.1-2.5,1.9-3.9,2.4c-1.5,0.6-3.1,0.8-4.9,0.8c-4.1,0-7.3-1.3-9.6-4
	c-2.3-2.7-3.4-5.7-3.4-9.1c0-3.2,1-6,2.9-8.5c2.5-3.2,5.8-4.7,9.9-4.7c4.3,0,7.7,1.6,10.2,4.8c1.8,2.3,2.7,5.1,2.8,8.5h-22.5
	c0.1,2.9,1,5.3,2.8,7.1c1.8,1.9,4,2.8,6.6,2.8c1.3,0,2.5-0.2,3.7-0.7c1.2-0.4,2.2-1,3.1-1.8C413.3,206.7,414.2,205.5,415.2,203.8
	 M415.2,197.1c-0.4-1.7-1.1-3.1-1.9-4.1c-0.8-1-1.9-1.9-3.3-2.5c-1.3-0.6-2.8-0.9-4.3-0.9c-2.5,0-4.6,0.8-6.3,2.4
	c-1.3,1.1-2.3,2.9-2.9,5.2H415.2z"/>
<path d="M424.7,177.5h3.2v14.1c1.3-1.7,2.7-3,4.3-3.8c1.6-0.8,3.3-1.3,5.1-1.3c1.9,0,3.5,0.5,5,1.4c1.4,0.9,2.5,2.2,3.2,3.8
	c0.7,1.6,1,4.1,1,7.5v12.8h-3.2v-11.9c0-2.9-0.1-4.8-0.3-5.8c-0.4-1.7-1.1-2.9-2.2-3.7c-1-0.8-2.4-1.3-4.1-1.3
	c-1.9,0-3.7,0.6-5.2,1.9c-1.5,1.3-2.6,2.9-3,4.8c-0.3,1.2-0.5,3.5-0.5,6.8v9.2h-3.2V177.5z"/>
<path d="M454.5,176.9c0.7,0,1.4,0.3,1.9,0.8c0.5,0.5,0.8,1.1,0.8,1.9c0,0.7-0.3,1.3-0.8,1.9c-0.5,0.5-1.1,0.8-1.9,0.8
	c-0.7,0-1.3-0.3-1.9-0.8c-0.5-0.5-0.8-1.1-0.8-1.9c0-0.7,0.3-1.4,0.8-1.9C453.1,177.1,453.7,176.9,454.5,176.9 M452.9,187.2h3.2v25
	h-3.2V187.2z"/>
<polygon points="465.6,177.9 468.8,177.9 468.8,187.2 473.9,187.2 473.9,189.9 468.8,189.9 468.8,212.1 465.6,212.1 465.6,189.9 
	461.2,189.9 461.2,187.2 465.6,187.2 "/>
<path d="M503.6,187.2v25h-3.2v-4.3c-1.3,1.6-2.9,2.9-4.5,3.7c-1.7,0.8-3.5,1.2-5.5,1.2c-3.5,0-6.6-1.3-9.1-3.8s-3.8-5.7-3.8-9.4
	c0-3.6,1.3-6.7,3.8-9.2c2.5-2.6,5.6-3.8,9.1-3.8c2,0,3.9,0.4,5.6,1.3c1.7,0.9,3.1,2.2,4.4,3.9v-4.6H503.6z M490.7,189.6
	c-1.8,0-3.4,0.4-5,1.3c-1.5,0.9-2.7,2.1-3.6,3.7c-0.9,1.6-1.3,3.3-1.3,5c0,1.8,0.4,3.4,1.4,5c0.9,1.6,2.1,2.9,3.6,3.7
	c1.5,0.9,3.2,1.3,4.9,1.3c1.8,0,3.4-0.4,5-1.3c1.6-0.9,2.8-2.1,3.6-3.6c0.8-1.5,1.3-3.2,1.3-5.1c0-2.9-1-5.3-2.9-7.2
	C495.8,190.6,493.5,189.6,490.7,189.6"/>
<path d="M535.7,177.5v34.6h-3.2v-4.3c-1.3,1.6-2.9,2.9-4.5,3.7c-1.7,0.8-3.5,1.2-5.5,1.2c-3.5,0-6.6-1.3-9.1-3.8
	c-2.5-2.6-3.8-5.7-3.8-9.4c0-3.6,1.3-6.7,3.8-9.2c2.5-2.6,5.6-3.8,9.1-3.8c2,0,3.9,0.4,5.6,1.3c1.7,0.9,3.1,2.2,4.4,3.9v-14.2H535.7
	z M522.9,189.6c-1.8,0-3.4,0.4-5,1.3c-1.5,0.9-2.7,2.1-3.6,3.7c-0.9,1.6-1.3,3.3-1.3,5c0,1.8,0.4,3.4,1.4,5c0.9,1.6,2.1,2.9,3.6,3.7
	c1.5,0.9,3.2,1.3,4.9,1.3c1.8,0,3.4-0.4,5-1.3c1.6-0.9,2.8-2.1,3.6-3.6c0.8-1.5,1.3-3.2,1.3-5.1c0-2.9-1-5.3-2.9-7.2
	C528,190.6,525.6,189.6,522.9,189.6"/>
<path d="M567.8,187.2v25h-3.2v-4.3c-1.3,1.6-2.9,2.9-4.5,3.7c-1.7,0.8-3.5,1.2-5.5,1.2c-3.5,0-6.6-1.3-9.1-3.8
	c-2.5-2.6-3.8-5.7-3.8-9.4c0-3.6,1.3-6.7,3.8-9.2c2.5-2.6,5.6-3.8,9.1-3.8c2,0,3.9,0.4,5.6,1.3c1.7,0.9,3.1,2.2,4.4,3.9v-4.6H567.8z
	 M555,189.6c-1.8,0-3.4,0.4-5,1.3c-1.5,0.9-2.7,2.1-3.6,3.7c-0.9,1.6-1.3,3.3-1.3,5c0,1.8,0.4,3.4,1.4,5c0.9,1.6,2.1,2.9,3.6,3.7
	c1.5,0.9,3.2,1.3,4.9,1.3c1.8,0,3.4-0.4,5-1.3c1.6-0.9,2.8-2.1,3.6-3.6c0.8-1.5,1.3-3.2,1.3-5.1c0-2.9-1-5.3-2.9-7.2
	C560.1,190.6,557.8,189.6,555,189.6"/>
<rect x="204" class="st0" width="3.6" height="151.9"/>
<path class="st1" d="M72.5,54.2c0-1.2,0.6-2.3,1.6-2.9l48.8-38.6l0,0c0.7-0.5,1.6-0.9,2.5-0.9c0.1,0,0.2,0,0.3,0c0.1,0,0.2,0,0.3,0
	c1,0,1.8,0.3,2.5,0.9l0,0l48.8,38.6c1,0.7,1.6,1.7,1.6,2.9c0,1.2,0,2.4,0,3.6l-0.1,72.3l-43.6,0.1v-26.6c0-5.1-4.5-9.3-10-9.3
	c-5.5,0-10,4.2-10,9.3v26.6l-42.7-0.1l-0.1-72.3C72.5,56.6,72.5,55.4,72.5,54.2"/>
<path class="st2" d="M35.9,54.2c0-1.2,0.6-2.3,1.6-2.9l48.8-38.6l0,0h0c0.7-0.5,1.6-0.9,2.5-0.9c0.1,0,0.2,0,0.3,0
	c0.1,0,0.2,0,0.3,0c1,0,1.8,0.3,2.5,0.9h0l0,0l48.8,38.6c1,0.7,1.6,1.7,1.6,2.9c0,1.2,0,2.4,0,3.6l-0.1,72.3l-43.6,0.1v-26.6
	c0-5.1-4.5-9.3-10-9.3c-5.5,0-10,4.2-10,9.3v26.6l-14.6,0v-25.9c0-5.7-5-10.4-11.2-10.4c-6.2,0-11.2,4.7-11.2,10.4v25.8l-5.7,0
	l-0.1-72.3C35.9,56.6,35.9,55.4,35.9,54.2"/>
<path class="st3" d="M0,54.2c0-1.2,0.6-2.3,1.6-2.9l48.8-38.6l0,0h0c0.7-0.5,1.6-0.9,2.5-0.9c0.1,0,0.2,0,0.3,0c0.1,0,0.2,0,0.3,0
	c1,0,1.8,0.3,2.5,0.9l0,0l48.8,38.6c1,0.7,1.6,1.7,1.6,2.9c0,1.2,0,2.4,0,3.6l-0.1,72.3l-42.4,0.1v-26c0-5.7-5-10.4-11.2-10.4
	c-6.2,0-11.2,4.7-11.2,10.4v26l-41.4-0.1L0,57.8C0,56.6,0,55.4,0,54.2"/>
<path class="st4" d="M53.2,11.8l0.2,0c0.1,0,0.2,0,0.3,0c1,0,1.8,0.3,2.5,0.9l0,0L105,51.3c1,0.7,1.6,1.7,1.6,2.9c0,1.2,0,2.4,0,3.6
	l-0.1,72.3l-42.4,0.1v-26c0-5.6-4.9-10.3-10.9-10.4V11.8z"/>
<polygon points="290.5,2.2 290.5,71.1 283.2,71.1 283.2,21.3 259.8,71.1 254.5,71.1 231.4,21.4 231.4,71.1 224.2,71.1 224.2,2.2 
	230.3,2.2 257.2,59.7 284.2,2.2 "/>
<path d="M333.9,2.2l30.3,68.9h-7.8L347,49.8h-31.7L306,71.1h-7.8l30.2-68.9H333.9z M343.9,42.6l-12.6-28.8l-12.7,28.8H343.9z"/>
<path d="M379.1,40.2v30.9h-7.2V2.2h27.3c10.4,0,18.9,8.6,18.9,19c0,10.5-8.5,19.1-18.9,19.1h-11.4 M393.3,46.2l29.3,24.9h-10.7
	l-28.4-24.8 M379.1,33h20c6.5,0,11.8-5.3,11.8-11.9c0-6.5-5.3-11.8-11.8-11.8h-20V33z"/>
<path d="M488.6,45.3c-3.9,15.1-17.5,25.8-33.3,25.8c-19,0-34.5-15.4-34.5-34.5c0-19,15.5-34.5,34.5-34.5c16.1,0,30,11.2,33.6,26.7
	h-7.4C478,17.4,467.4,9.3,455.3,9.3c-15,0-27.4,12.3-27.4,27.4c0,15.1,12.3,27.5,27.4,27.5c11.8,0,22.3-7.7,25.9-18.8H488.6z"/>
<polygon points="496.6,2.2 542,2.2 542,9.4 503.8,9.4 503.8,33 531.7,33 531.7,40.2 503.8,40.2 503.8,63.8 542,63.8 542,71.1 
	496.6,71.1 "/>
<polygon points="595.3,63.9 595.3,71.1 549.7,71.1 549.7,2.2 556.9,2.2 556.9,63.9 "/>
<polygon points="272.8,79.3 280,79.3 280,148.2 272.8,148.2 272.8,117.4 231.8,117.4 231.8,148.2 224.6,148.2 224.6,79.3 
	231.8,79.3 231.8,110.2 272.8,110.2 "/>
<path d="M356,113.6c0,18.9-15.3,34.2-34.1,34.2c-18.9,0-34.2-15.3-34.2-34.2c0-18.9,15.3-34.2,34.2-34.2
	C340.7,79.4,356,94.8,356,113.6 M349,113.6c0-14.9-12.1-27.1-27.1-27.1c-14.9,0-27.1,12.1-27.1,27.1c0,14.9,12.1,27.2,27.1,27.2
	C336.9,140.8,349,128.6,349,113.6"/>
<path d="M410.9,79.3h7.1v41.8c0,14.9-12.1,27.1-27.1,27.1c-14.1,0-25.6-10.7-27.1-24.4h-0.1v-2.7V79.3h7.2v42.1
	c0,10.9,9.1,19.7,19.9,19.7c10.8,0,19.9-8.8,19.9-19.6v-0.4V79.3z"/>
<path d="M476.1,129.3c0,10.5-10,19-22.3,19H448c-12.2,0-22.3-8.5-22.3-19v-0.4l0.1-2.7h7.5l-0.1,3.1c-0.2,6.5,6.6,11.8,14.7,11.8
	h5.9c8.1,0,14.7-5.3,14.7-11.8c0-6.6-6.6-11.9-14.7-11.9h-0.2h-1h-1.5c-3.9-0.2-9.2-0.7-12.1-2.4c-7.6-4.4-11.3-9.8-11.3-16.7
	c0-10.4,10-19,22.3-19h1.7c11.9,0,21.7,7.9,22.3,18l0.2,2.9h-7.5l-0.2-2.6c-0.5-6.3-6.9-11.1-14.7-11.1H450
	c-8.1,0-14.7,5.3-14.7,11.8c0,6.4,6.2,11.7,13.9,11.9h0.5h0.2h2.9v0.1c3.3,0.1,4.9,0.2,5,0.3h0.3
	C468.6,111.8,476.1,120.1,476.1,129.3"/>
<polygon points="483.8,79.3 529.2,79.3 529.2,86.6 491.1,86.6 491.1,110.2 518.9,110.2 518.9,117.4 491.1,117.4 491.1,141 
	529.2,141 529.2,148.2 483.8,148.2 "/>
</svg>
